<svg id="svg" version="1.1" width="1000" height="600" xmlns="http://www.w3.org/2000/svg" xmlns:xlink="http://www.w3.org/1999/xlink" style="display: block;"><g id="svgg"><path id="path0" d="M305.600 11.839 C 301.530 13.025,297.952 14.090,297.649 14.205 C 297.148 14.395,300.152 16.796,306.000 20.880 C 310.676 24.146,317.043 29.830,319.799 33.200 C 325.339 39.972,327.626 47.245,329.803 65.000 C 330.369 69.620,330.924 73.991,331.037 74.713 L 331.241 76.025 332.320 75.220 C 332.914 74.778,336.325 72.188,339.901 69.464 C 344.322 66.097,347.940 63.718,351.211 62.027 L 356.021 59.541 353.353 55.670 C 347.062 46.544,336.847 33.377,332.042 28.200 C 323.972 19.507,314.146 9.606,313.622 9.641 C 313.280 9.664,309.670 10.653,305.600 11.839 M250.000 20.398 C 239.550 23.212,225.604 26.961,219.009 28.730 C 212.414 30.500,206.958 32.125,206.886 32.343 C 206.736 32.793,205.840 32.668,201.600 31.604 C 182.308 26.764,165.767 30.585,149.480 43.643 C 147.040 45.600,144.813 47.200,144.531 47.200 C 144.248 47.200,139.558 48.288,134.109 49.617 C 125.067 51.823,100.700 57.555,89.078 60.210 C 86.480 60.803,84.415 61.348,84.487 61.421 C 84.624 61.557,103.091 57.871,105.594 57.208 C 106.367 57.003,107.630 56.730,108.400 56.602 C 109.170 56.474,116.460 55.016,124.600 53.362 C 132.740 51.708,140.390 50.156,141.600 49.912 C 143.459 49.538,144.265 49.056,146.800 46.802 C 156.518 38.163,160.683 35.764,171.943 32.322 L 177.400 30.654 186.200 30.627 C 195.732 30.598,196.211 30.668,206.286 33.562 C 210.204 34.687,210.477 34.713,212.886 34.197 C 214.269 33.901,216.390 33.459,217.600 33.214 C 221.051 32.515,223.236 31.997,225.400 31.365 C 227.516 30.747,266.184 21.216,274.000 19.386 C 279.946 17.994,279.946 17.992,274.897 16.483 C 269.479 14.865,272.062 14.458,250.000 20.398 M283.200 17.800 C 238.794 28.719,226.412 31.828,226.499 32.036 C 226.555 32.168,228.580 33.770,231.000 35.595 C 244.086 45.468,246.778 48.867,252.218 62.386 L 254.989 69.272 279.194 69.083 C 292.507 68.979,303.756 68.828,304.190 68.747 C 304.625 68.666,304.985 68.810,304.990 69.067 C 304.996 69.323,305.164 69.683,305.364 69.867 C 305.576 70.060,305.608 69.990,305.441 69.700 C 305.012 68.955,305.817 69.096,306.451 69.877 C 306.924 70.460,306.917 70.507,306.400 70.213 C 306.048 70.013,305.936 70.020,306.128 70.231 C 306.309 70.428,306.759 70.592,307.128 70.595 C 307.498 70.598,307.762 70.804,307.716 71.053 C 307.669 71.302,307.939 71.482,308.316 71.453 C 308.692 71.424,308.951 71.638,308.890 71.930 C 308.830 72.221,308.971 72.341,309.205 72.197 C 309.870 71.786,314.880 76.124,316.626 78.623 C 317.492 79.862,318.857 81.618,319.659 82.525 L 321.118 84.174 324.059 81.902 C 329.600 77.621,329.164 78.335,328.754 74.200 C 325.536 41.801,323.833 38.195,304.400 22.618 C 298.166 17.621,294.589 15.142,293.765 15.246 C 293.564 15.272,288.810 16.421,283.200 17.800 M172.435 23.362 C 171.655 24.193,171.598 24.453,172.017 25.262 C 173.286 27.712,172.623 27.600,185.798 27.600 L 197.872 27.600 198.929 26.115 L 199.986 24.629 198.918 23.515 L 197.850 22.400 185.595 22.400 L 173.339 22.400 172.435 23.362 M198.200 23.600 C 198.923 24.398,198.899 24.400,185.800 24.400 C 172.701 24.400,172.677 24.398,173.400 23.600 C 174.092 22.835,174.632 22.800,185.800 22.800 C 196.968 22.800,197.508 22.835,198.200 23.600 M198.307 26.000 C 197.826 26.771,197.374 26.800,185.784 26.800 C 173.982 26.800,172.800 26.683,172.800 25.520 C 172.800 25.344,178.652 25.200,185.803 25.200 C 198.707 25.200,198.803 25.206,198.307 26.000 M214.200 34.620 C 208.920 35.800,199.470 37.871,193.200 39.221 C 186.930 40.571,181.749 41.725,181.686 41.785 C 181.624 41.845,183.123 44.123,185.018 46.847 C 189.497 53.286,190.788 56.070,192.831 63.700 L 194.517 70.000 200.959 69.986 C 212.595 69.962,252.480 69.254,252.665 69.069 C 252.902 68.831,250.377 62.094,248.087 56.856 C 244.628 48.943,240.765 44.225,233.000 38.432 C 228.401 35.001,224.534 32.390,224.122 32.436 C 223.945 32.456,219.480 33.439,214.200 34.620 M170.400 44.371 C 165.670 45.415,158.185 47.056,153.767 48.018 L 145.734 49.767 148.061 55.073 C 150.179 59.904,151.439 63.978,152.297 68.770 L 152.613 70.540 170.207 70.458 C 189.324 70.369,192.400 70.214,192.400 69.342 C 192.400 62.920,188.116 53.215,180.998 43.513 C 180.005 42.160,180.651 42.108,170.400 44.371 M141.600 50.645 C 139.998 51.051,107.775 57.590,107.338 57.599 C 107.304 57.599,107.682 59.085,108.178 60.900 C 108.675 62.715,109.310 65.685,109.589 67.500 L 110.098 70.800 130.649 70.800 C 143.579 70.800,151.200 70.657,151.200 70.414 C 151.200 69.266,149.569 61.889,148.898 60.000 C 147.566 56.253,144.621 50.017,144.200 50.054 C 143.980 50.073,142.810 50.339,141.600 50.645 M103.200 58.448 C 102.210 58.655,97.890 59.541,93.600 60.417 C 65.209 66.210,64.417 66.418,63.433 68.354 C 62.207 70.766,62.235 71.200,63.616 71.200 C 64.670 71.200,64.836 71.319,64.592 71.900 C 62.668 76.491,62.251 78.321,62.268 82.116 L 62.285 86.032 60.482 85.761 C 58.840 85.515,58.698 85.559,58.901 86.245 C 59.367 87.818,64.524 99.421,64.952 99.857 C 65.356 100.270,77.253 103.007,85.400 104.562 C 87.160 104.898,91.030 105.704,94.000 106.354 L 99.400 107.535 100.112 106.667 C 103.220 102.880,108.291 90.262,106.876 89.835 C 106.504 89.723,100.530 89.173,93.600 88.613 C 86.670 88.054,79.895 87.462,78.544 87.298 L 76.088 87.000 82.838 79.800 C 90.554 71.569,90.031 72.392,88.098 71.538 C 86.657 70.902,87.028 70.875,97.819 70.838 L 109.038 70.800 108.698 67.484 C 108.511 65.660,107.949 62.825,107.449 61.184 C 106.442 57.879,106.314 57.797,103.200 58.448 M166.600 71.234 L 93.800 72.361 91.815 74.480 C 90.723 75.646,87.882 78.648,85.500 81.152 C 83.119 83.656,81.222 85.750,81.285 85.807 C 81.440 85.946,172.300 91.068,198.800 92.432 C 203.310 92.664,220.680 93.617,237.400 94.548 L 267.800 96.243 271.400 95.327 C 282.929 92.394,284.275 92.243,298.800 92.246 C 306.170 92.248,311.120 92.122,309.800 91.968 C 299.411 90.751,284.014 91.709,273.707 94.213 C 268.035 95.591,267.608 95.638,262.976 95.380 L 258.152 95.113 250.686 89.152 C 239.539 80.254,236.308 76.754,237.469 74.838 C 238.683 72.833,246.320 70.971,254.800 70.613 L 261.000 70.351 265.600 72.213 C 284.454 79.846,293.097 81.572,312.567 81.594 C 321.140 81.603,318.808 81.229,307.630 80.801 C 289.749 80.117,285.536 79.247,268.636 72.753 L 261.472 70.000 250.436 70.054 C 244.366 70.084,206.640 70.615,166.600 71.234 M338.722 74.508 C 338.135 76.877,337.263 79.451,336.783 80.227 L 335.911 81.638 330.732 81.576 C 327.884 81.541,325.444 81.623,325.310 81.757 C 325.176 81.890,327.604 82.000,330.706 82.000 L 336.346 82.000 337.193 80.809 C 338.108 79.525,340.104 72.312,339.908 71.000 C 339.842 70.560,339.308 72.139,338.722 74.508 M242.351 71.764 C 233.152 74.507,235.614 78.803,254.487 92.946 C 255.965 94.054,257.135 94.988,257.087 95.024 C 257.039 95.059,228.920 93.517,194.600 91.598 C 160.280 89.679,121.085 87.504,107.500 86.765 C 93.915 86.025,82.800 85.310,82.800 85.174 C 82.800 85.039,85.338 82.220,88.440 78.911 L 94.080 72.894 116.340 72.605 C 128.583 72.446,158.850 72.000,183.600 71.615 C 208.350 71.229,232.380 70.900,237.000 70.884 L 245.400 70.854 242.351 71.764 M260.800 71.052 C 260.800 71.180,261.292 71.671,261.894 72.142 C 264.339 74.059,271.822 80.602,272.120 81.083 C 272.624 81.898,272.955 81.731,275.117 79.569 L 277.148 77.538 275.874 77.014 C 275.173 76.726,271.900 75.370,268.600 74.001 C 261.009 70.851,260.800 70.772,260.800 71.052 M87.098 71.858 L 88.822 72.517 85.924 75.558 C 84.330 77.231,81.225 80.475,79.025 82.766 L 75.023 86.932 69.218 86.439 C 66.025 86.167,63.319 85.852,63.206 85.738 C 62.423 84.952,63.068 77.613,64.193 74.500 L 65.386 71.200 75.380 71.200 C 83.693 71.200,85.663 71.311,87.098 71.858 M269.800 92.585 C 268.260 94.003,267.180 95.165,267.400 95.168 C 267.620 95.171,270.031 94.581,272.757 93.857 L 277.714 92.541 275.273 91.270 C 273.931 90.572,272.780 90.002,272.716 90.003 C 272.652 90.005,271.340 91.167,269.800 92.585 M108.611 92.600 C 108.275 93.810,107.726 95.787,107.390 96.994 C 107.055 98.201,105.780 101.096,104.558 103.428 C 103.335 105.760,102.394 107.717,102.467 107.778 C 102.540 107.839,106.920 108.830,112.200 109.981 C 117.480 111.132,125.006 112.788,128.925 113.662 C 132.843 114.535,136.222 115.193,136.433 115.122 C 139.436 114.121,150.541 92.801,148.061 92.800 C 147.378 92.799,128.471 91.523,118.600 90.811 C 115.520 90.589,112.150 90.405,111.111 90.404 L 109.222 90.400 108.611 92.600 M324.400 91.015 C 324.070 91.087,321.550 91.440,318.800 91.799 C 312.880 92.573,306.100 94.284,301.068 96.274 L 297.435 97.710 281.418 97.450 C 272.608 97.307,263.304 97.081,260.741 96.946 C 255.203 96.656,256.133 95.827,251.871 104.863 C 244.911 119.620,241.561 123.775,230.771 131.034 L 225.369 134.668 236.985 136.737 C 250.426 139.131,251.110 139.251,252.260 139.405 C 252.733 139.469,253.453 139.624,253.860 139.749 C 254.267 139.875,255.410 140.089,256.400 140.226 C 257.390 140.363,258.560 140.544,259.000 140.629 C 259.440 140.713,261.150 141.043,262.800 141.361 C 264.450 141.680,271.501 142.965,278.468 144.217 L 291.136 146.493 296.268 143.390 C 317.451 130.581,322.233 124.538,327.328 104.143 C 329.502 95.438,329.491 95.754,327.706 93.199 C 326.231 91.087,325.695 90.733,324.400 91.015 M150.602 93.694 C 146.261 106.091,146.028 106.540,140.472 113.171 L 138.318 115.742 148.059 117.851 C 153.417 119.012,160.972 120.626,164.849 121.440 L 171.897 122.919 173.418 121.759 C 175.969 119.814,182.575 112.122,184.561 108.783 C 186.547 105.444,191.412 94.879,191.105 94.572 C 191.005 94.472,184.641 94.218,176.962 94.009 C 169.283 93.799,160.250 93.529,156.890 93.408 C 152.166 93.238,150.739 93.303,150.602 93.694 M329.200 94.380 C 329.200 94.547,330.840 94.919,332.845 95.206 C 336.900 95.788,337.524 96.302,338.419 99.800 C 339.072 102.350,339.658 103.318,339.387 101.400 C 338.869 97.730,337.242 95.448,334.800 94.966 C 331.276 94.270,329.200 94.053,329.200 94.380 M192.923 95.107 C 188.564 107.351,186.389 111.120,179.018 119.200 C 175.824 122.702,175.304 123.448,175.894 123.686 C 179.869 125.296,222.702 134.041,223.728 133.452 C 229.842 129.943,238.880 122.313,241.848 118.154 C 244.975 113.771,252.538 97.532,251.769 96.850 C 251.566 96.670,238.800 96.129,223.400 95.646 C 208.000 95.164,194.898 94.689,194.285 94.591 C 193.482 94.464,193.101 94.608,192.923 95.107 M330.400 99.334 C 325.150 125.492,321.040 131.103,295.737 146.653 C 295.332 146.902,295.090 147.197,295.200 147.307 C 295.863 147.973,326.888 151.683,327.405 151.158 C 327.707 150.851,328.792 149.070,329.817 147.200 C 332.653 142.021,336.447 136.515,339.378 133.325 C 341.316 131.216,353.419 120.200,354.743 119.340 C 355.095 119.112,352.059 114.411,350.417 112.643 C 348.490 110.569,347.077 109.404,337.147 101.712 L 330.895 96.868 330.400 99.334 M107.577 109.972 C 107.894 110.175,112.304 111.358,117.377 112.600 C 122.450 113.842,128.220 115.291,130.200 115.821 C 132.180 116.350,136.950 117.510,140.800 118.397 C 144.650 119.285,148.160 120.182,148.600 120.391 C 149.040 120.600,154.170 121.933,160.000 123.353 C 165.830 124.774,174.830 127.047,180.000 128.404 C 185.170 129.762,205.330 134.901,224.800 139.825 C 244.270 144.748,266.383 150.352,273.939 152.277 L 287.679 155.778 290.307 154.389 C 292.747 153.100,296.800 149.617,296.800 148.809 C 296.800 148.376,298.379 148.683,265.000 142.618 C 249.820 139.860,233.890 136.956,229.600 136.164 C 225.310 135.373,221.350 134.642,220.800 134.541 C 220.250 134.440,217.820 133.904,215.400 133.351 C 212.980 132.798,208.570 131.830,205.600 131.201 C 200.531 130.127,186.875 127.166,168.000 123.047 C 163.490 122.063,158.990 121.058,158.000 120.815 C 157.010 120.572,155.840 120.302,155.400 120.216 C 154.551 120.049,153.239 119.757,151.600 119.371 C 151.050 119.241,148.890 118.807,146.800 118.406 C 144.710 118.004,140.210 117.040,136.800 116.262 C 106.636 109.383,106.672 109.391,107.577 109.972 M341.309 136.100 C 340.769 141.464,340.060 144.337,339.217 144.569 C 338.878 144.662,336.800 145.146,334.600 145.644 C 332.400 146.143,330.870 146.603,331.200 146.668 C 331.530 146.733,333.690 146.375,335.999 145.874 L 340.198 144.961 340.912 142.381 C 341.562 140.028,342.366 131.600,341.941 131.600 C 341.842 131.600,341.558 133.625,341.309 136.100 M162.000 187.800 C 162.000 188.350,162.180 188.800,162.400 188.800 C 162.620 188.800,162.800 188.350,162.800 187.800 C 162.800 187.250,162.620 186.800,162.400 186.800 C 162.180 186.800,162.000 187.250,162.000 187.800 " stroke="none" fill="#000000" fill-rule="evenodd"></path><path id="path1" d="M117.100 72.689 C 117.815 72.778,118.985 72.778,119.700 72.689 C 120.415 72.601,119.830 72.528,118.400 72.528 C 116.970 72.528,116.385 72.601,117.100 72.689 M94.500 73.076 C 94.885 73.176,95.515 73.176,95.900 73.076 C 96.285 72.975,95.970 72.893,95.200 72.893 C 94.430 72.893,94.115 72.975,94.500 73.076 M261.905 97.083 C 262.402 97.179,263.122 97.175,263.505 97.075 C 263.887 96.975,263.480 96.896,262.600 96.901 C 261.720 96.905,261.407 96.987,261.905 97.083 M280.900 97.487 C 281.505 97.578,282.495 97.578,283.100 97.487 C 283.705 97.395,283.210 97.320,282.000 97.320 C 280.790 97.320,280.295 97.395,280.900 97.487 " stroke="none" fill="#4f4f4f" fill-rule="evenodd"></path><path id="path2" d="M90.878 71.098 C 93.231 71.169,97.191 71.169,99.678 71.099 C 102.165 71.029,100.240 70.971,95.400 70.970 C 90.560 70.970,88.525 71.028,90.878 71.098 M83.300 71.476 C 83.685 71.576,84.315 71.576,84.700 71.476 C 85.085 71.375,84.770 71.293,84.000 71.293 C 83.230 71.293,82.915 71.375,83.300 71.476 M100.500 72.291 C 101.325 72.378,102.675 72.378,103.500 72.291 C 104.325 72.205,103.650 72.134,102.000 72.134 C 100.350 72.134,99.675 72.205,100.500 72.291 M314.500 81.876 C 314.885 81.976,315.515 81.976,315.900 81.876 C 316.285 81.775,315.970 81.693,315.200 81.693 C 314.430 81.693,314.115 81.775,314.500 81.876 M292.500 91.476 C 292.885 91.576,293.515 91.576,293.900 91.476 C 294.285 91.375,293.970 91.293,293.200 91.293 C 292.430 91.293,292.115 91.375,292.500 91.476 M295.500 91.482 C 295.995 91.578,296.805 91.578,297.300 91.482 C 297.795 91.387,297.390 91.309,296.400 91.309 C 295.410 91.309,295.005 91.387,295.500 91.482 M171.500 93.882 C 171.995 93.978,172.805 93.978,173.300 93.882 C 173.795 93.787,173.390 93.709,172.400 93.709 C 171.410 93.709,171.005 93.787,171.500 93.882 M217.300 95.476 C 217.685 95.576,218.315 95.576,218.700 95.476 C 219.085 95.375,218.770 95.293,218.000 95.293 C 217.230 95.293,216.915 95.375,217.300 95.476 M228.900 95.876 C 229.285 95.976,229.915 95.976,230.300 95.876 C 230.685 95.775,230.370 95.693,229.600 95.693 C 228.830 95.693,228.515 95.775,228.900 95.876 M240.500 96.276 C 240.885 96.376,241.515 96.376,241.900 96.276 C 242.285 96.175,241.970 96.093,241.200 96.093 C 240.430 96.093,240.115 96.175,240.500 96.276 M258.305 96.683 C 258.802 96.779,259.522 96.775,259.905 96.675 C 260.287 96.575,259.880 96.496,259.000 96.501 C 258.120 96.505,257.807 96.587,258.305 96.683 " stroke="none" fill="#7f7f7f" fill-rule="evenodd"></path><path id="path3" d="M179.500 22.299 C 182.855 22.366,188.345 22.366,191.700 22.299 C 195.055 22.232,192.310 22.178,185.600 22.178 C 178.890 22.178,176.145 22.232,179.500 22.299 M173.600 23.600 C 172.602 24.381,172.625 24.382,185.762 24.391 C 198.899 24.400,198.923 24.398,198.200 23.600 C 197.092 22.376,175.165 22.376,173.600 23.600 M173.200 26.000 C 173.614 26.773,174.038 26.800,185.718 26.800 C 197.374 26.800,197.825 26.771,198.307 26.000 C 198.803 25.206,198.707 25.200,185.789 25.200 C 172.896 25.200,172.776 25.208,173.200 26.000 M301.300 68.697 C 299.705 68.773,298.400 69.007,298.400 69.218 C 298.400 69.453,292.530 69.620,283.100 69.652 C 274.685 69.681,266.482 69.816,264.870 69.952 L 261.940 70.200 270.270 73.315 C 286.730 79.470,289.933 80.113,307.389 80.776 C 318.787 81.209,318.068 81.339,316.570 79.108 C 315.939 78.169,315.418 77.220,315.412 77.000 C 315.405 76.780,315.130 76.592,314.800 76.582 C 314.470 76.572,314.260 76.302,314.333 75.982 C 314.407 75.662,314.343 75.524,314.191 75.676 C 313.863 76.004,309.757 72.832,309.895 72.357 C 309.948 72.176,309.723 72.132,309.395 72.257 C 309.068 72.383,308.800 72.286,308.800 72.043 C 308.800 71.799,308.607 71.600,308.372 71.600 C 307.615 71.600,304.375 69.164,304.615 68.775 C 304.743 68.569,304.702 68.436,304.524 68.479 C 304.346 68.523,302.895 68.621,301.300 68.697 M247.523 69.899 C 250.231 69.968,254.551 69.968,257.123 69.899 C 259.695 69.829,257.480 69.772,252.200 69.773 C 246.920 69.773,244.815 69.830,247.523 69.899 M221.100 70.299 C 224.455 70.366,229.945 70.366,233.300 70.299 C 236.655 70.232,233.910 70.178,227.200 70.178 C 220.490 70.178,217.745 70.232,221.100 70.299 M193.700 70.699 C 197.165 70.766,202.835 70.766,206.300 70.699 C 209.765 70.633,206.930 70.578,200.000 70.578 C 193.070 70.578,190.235 70.633,193.700 70.699 M166.300 71.099 C 169.875 71.166,175.725 71.166,179.300 71.099 C 182.875 71.033,179.950 70.979,172.800 70.979 C 165.650 70.979,162.725 71.033,166.300 71.099 M332.400 76.107 L 325.800 81.400 330.788 81.513 C 336.585 81.644,336.628 81.619,337.952 77.400 C 338.658 75.149,339.442 70.791,339.138 70.807 C 339.062 70.811,336.030 73.196,332.400 76.107 M88.500 71.716 C 90.022 72.323,90.315 71.898,83.000 79.698 C 75.413 87.789,75.930 87.012,78.100 87.053 C 79.035 87.071,81.060 87.203,82.600 87.347 C 84.140 87.491,85.670 87.624,86.000 87.641 C 89.133 87.805,108.741 89.701,109.200 89.884 C 109.530 90.015,110.070 90.093,110.400 90.056 C 110.730 90.019,116.040 90.351,122.200 90.793 C 128.360 91.234,134.660 91.680,136.200 91.782 C 137.740 91.885,140.440 92.083,142.200 92.222 C 143.960 92.361,145.850 92.483,146.400 92.493 C 146.950 92.502,149.555 92.769,152.190 93.087 C 154.824 93.404,157.479 93.564,158.088 93.442 C 159.096 93.241,179.236 93.726,191.000 94.235 C 193.640 94.349,196.070 94.451,196.400 94.461 C 196.730 94.470,201.680 94.642,207.400 94.843 C 213.120 95.044,226.350 95.490,236.800 95.835 C 247.250 96.179,257.060 96.510,258.600 96.570 C 265.064 96.821,275.862 96.831,276.602 96.587 C 277.248 96.375,277.286 96.407,276.800 96.756 C 276.363 97.070,278.812 97.206,285.800 97.256 C 291.080 97.294,295.882 97.348,296.470 97.376 C 297.059 97.405,297.436 97.258,297.308 97.051 C 297.175 96.836,297.447 96.771,297.938 96.900 C 298.491 97.044,298.707 96.972,298.538 96.700 C 298.369 96.427,298.585 96.355,299.138 96.500 C 299.613 96.624,299.918 96.590,299.816 96.425 C 299.677 96.200,307.861 93.422,311.000 92.629 C 311.220 92.573,307.620 92.398,303.000 92.240 C 290.128 91.800,284.448 92.315,273.800 94.889 C 270.940 95.581,267.970 96.157,267.200 96.169 C 265.426 96.198,261.667 95.999,222.400 93.790 C 204.690 92.794,176.970 91.269,160.800 90.401 C 116.153 88.006,81.462 85.996,81.259 85.793 C 81.159 85.693,82.688 83.943,84.656 81.905 C 86.624 79.867,89.522 76.851,91.096 75.202 L 93.957 72.203 112.779 72.057 C 123.130 71.977,131.600 71.766,131.600 71.587 C 131.600 71.408,121.655 71.266,109.500 71.270 C 93.069 71.276,87.682 71.390,88.500 71.716 M140.300 71.499 C 143.655 71.566,149.145 71.566,152.500 71.499 C 155.855 71.432,153.110 71.378,146.400 71.378 C 139.690 71.378,136.945 71.432,140.300 71.499 M330.000 95.283 C 330.330 95.604,332.310 97.184,334.400 98.795 C 336.490 100.405,338.421 101.894,338.691 102.103 C 339.365 102.625,338.172 98.606,337.161 96.952 C 336.479 95.835,336.135 95.674,333.899 95.427 C 332.525 95.275,330.950 95.050,330.400 94.926 C 329.518 94.727,329.471 94.769,330.000 95.283 M339.315 134.344 C 336.626 137.399,331.200 145.299,331.200 146.159 C 331.200 146.415,339.319 144.441,339.658 144.102 C 340.343 143.417,342.102 132.000,341.523 132.000 C 341.443 132.000,340.450 133.055,339.315 134.344 " stroke="none" fill="#c3c3c3" fill-rule="evenodd"></path><path id="path4" d="M0.000 120.000 L 0.000 240.000 200.000 240.000 L 400.000 240.000 400.000 120.000 L 400.000 0.000 200.000 0.000 L 0.000 0.000 0.000 120.000 M322.895 18.500 C 334.449 30.498,336.388 32.646,340.720 38.251 C 344.566 43.226,354.916 57.523,355.606 58.812 C 355.949 59.452,355.458 59.826,351.624 61.841 C 346.903 64.323,341.680 67.898,335.491 72.886 C 330.938 76.556,330.996 76.561,330.636 72.511 C 327.812 40.720,324.040 33.687,301.100 17.438 C 298.955 15.918,297.200 14.566,297.200 14.433 C 297.200 14.179,312.525 9.720,313.662 9.644 C 314.035 9.619,318.062 13.482,322.895 18.500 M274.800 16.371 C 277.550 17.227,279.530 18.031,279.200 18.156 C 278.870 18.281,277.070 18.736,275.200 19.167 C 268.967 20.603,228.227 30.671,223.200 32.018 C 221.339 32.517,214.260 34.029,212.000 34.411 C 210.509 34.663,209.130 34.420,203.971 32.998 C 194.961 30.515,192.748 30.236,184.253 30.519 L 176.988 30.760 170.274 32.958 C 160.279 36.230,156.718 38.306,147.668 46.136 L 143.537 49.711 124.068 53.623 C 113.361 55.775,100.036 58.460,94.457 59.591 C 88.878 60.722,84.242 61.576,84.155 61.488 C 84.067 61.400,85.031 61.100,86.298 60.821 C 88.666 60.299,125.768 51.415,138.600 48.298 L 145.800 46.549 150.575 42.710 C 164.103 31.833,182.960 26.983,197.600 30.613 C 203.169 31.994,206.789 32.705,206.587 32.379 C 206.471 32.191,207.146 31.836,208.088 31.591 C 215.531 29.649,269.800 14.913,269.800 14.833 C 269.800 14.822,272.050 15.514,274.800 16.371 M304.200 22.360 C 319.762 34.747,323.719 40.408,326.197 53.822 C 327.361 60.127,329.309 77.656,328.890 78.059 C 327.953 78.961,321.454 84.000,321.228 84.000 C 320.803 84.000,318.639 81.581,317.293 79.600 C 315.184 76.498,306.174 68.800,304.651 68.800 C 304.427 68.800,305.699 69.796,307.478 71.013 C 311.798 73.968,315.664 77.566,317.196 80.054 L 318.448 82.091 314.124 81.852 C 311.746 81.720,307.370 81.508,304.400 81.380 C 289.015 80.717,282.550 79.238,267.000 72.825 L 261.000 70.350 254.800 70.613 C 242.837 71.121,236.218 73.609,237.824 76.995 C 239.567 80.667,257.590 95.200,260.401 95.200 C 261.434 95.200,263.701 95.284,265.440 95.387 C 267.178 95.491,268.275 95.476,267.878 95.354 C 267.481 95.232,267.211 94.997,267.278 94.831 C 267.495 94.293,272.519 89.972,272.793 90.088 C 278.562 92.526,278.545 92.477,273.982 93.604 C 271.993 94.096,270.435 94.569,270.522 94.655 C 270.608 94.741,272.587 94.361,274.920 93.810 C 283.948 91.677,286.269 91.442,297.700 91.504 C 303.585 91.536,309.881 91.765,311.690 92.012 C 314.047 92.335,315.020 92.340,315.124 92.029 C 315.203 91.790,315.443 91.703,315.657 91.836 C 315.871 91.968,317.611 91.873,319.523 91.625 C 326.849 90.676,326.006 90.536,327.700 92.984 C 329.567 95.683,329.590 95.147,327.218 104.527 C 322.162 124.528,317.803 130.186,298.060 142.375 C 294.474 144.589,291.237 146.400,290.866 146.400 C 290.033 146.400,225.490 134.816,225.302 134.633 C 225.248 134.580,226.591 133.658,228.287 132.584 C 240.380 124.923,243.809 121.036,250.503 107.400 C 252.447 103.440,254.461 99.345,254.977 98.300 L 255.917 96.400 254.224 96.400 L 252.530 96.400 250.206 101.900 C 243.424 117.950,240.210 122.153,228.600 130.162 C 226.400 131.680,224.240 133.229,223.800 133.604 C 223.035 134.258,176.401 124.540,175.380 123.515 C 175.224 123.358,176.670 121.558,178.594 119.515 C 185.353 112.335,187.862 108.349,191.156 99.563 C 192.014 97.273,192.829 95.123,192.968 94.785 C 193.174 94.284,192.867 94.166,191.310 94.151 C 190.260 94.140,189.805 94.205,190.300 94.294 C 191.475 94.505,191.491 94.419,189.391 99.221 C 185.260 108.666,182.842 112.307,176.202 119.084 L 172.200 123.168 166.200 121.822 C 162.900 121.082,155.340 119.451,149.400 118.198 C 143.460 116.945,138.540 115.863,138.468 115.794 C 138.395 115.725,139.773 113.932,141.531 111.810 C 145.283 107.279,146.961 104.212,148.976 98.200 C 149.787 95.780,150.744 93.575,151.102 93.300 C 151.677 92.859,151.638 92.799,150.776 92.796 C 150.239 92.793,149.080 92.709,148.200 92.609 C 147.069 92.481,146.921 92.511,147.697 92.714 L 148.795 93.000 147.288 97.400 C 145.017 104.032,137.960 115.225,136.074 115.186 C 135.703 115.178,127.904 113.509,118.741 111.477 L 102.083 107.781 104.237 103.896 C 106.100 100.536,109.200 91.897,109.200 90.064 C 109.200 89.806,108.623 89.603,107.900 89.606 C 107.169 89.610,106.806 89.743,107.071 89.912 C 108.153 90.600,103.110 103.154,100.486 106.304 L 99.400 107.607 93.800 106.418 C 90.720 105.763,83.011 104.158,76.669 102.850 C 70.328 101.542,65.067 100.401,64.979 100.313 C 64.892 100.225,63.391 96.879,61.644 92.877 L 58.469 85.600 60.368 85.600 L 62.268 85.600 62.248 81.900 C 62.232 78.753,62.414 77.677,63.467 74.700 L 64.705 71.200 63.525 71.200 C 61.412 71.200,63.154 67.534,65.807 66.397 C 67.323 65.747,104.264 58.000,105.847 58.000 C 106.794 58.000,108.531 63.896,108.937 68.482 L 109.139 70.765 106.469 70.904 C 97.777 71.357,143.555 71.283,171.000 70.799 L 187.800 70.503 170.158 70.551 L 152.517 70.600 151.830 67.000 C 150.986 62.570,149.765 58.864,147.463 53.741 L 145.697 49.810 156.749 47.320 C 169.295 44.493,179.091 42.400,179.774 42.400 C 180.401 42.400,185.985 50.358,187.937 54.034 C 189.836 57.610,190.534 59.706,191.766 65.523 L 192.706 69.959 191.053 70.109 C 188.176 70.372,211.184 70.297,227.200 69.992 C 239.265 69.762,237.389 69.738,218.537 69.881 C 195.487 70.055,194.464 70.032,194.249 69.331 C 194.125 68.929,193.385 66.188,192.604 63.241 C 190.407 54.950,189.568 53.272,183.127 44.296 C 182.218 43.030,181.571 41.896,181.690 41.777 C 181.809 41.658,191.522 39.474,203.274 36.925 L 224.643 32.290 227.621 34.409 C 241.538 44.312,244.655 48.033,249.891 61.000 C 253.536 70.024,253.677 69.185,248.500 69.275 C 246.135 69.316,248.610 69.451,254.000 69.575 C 259.390 69.699,271.630 69.700,281.200 69.578 L 298.600 69.356 276.730 69.278 L 254.861 69.200 253.188 64.900 C 247.222 49.564,244.432 45.869,231.287 35.896 L 225.975 31.866 245.687 26.984 C 256.529 24.299,271.970 20.489,280.000 18.516 L 294.600 14.931 296.000 15.939 C 296.770 16.494,300.460 19.383,304.200 22.360 M198.767 23.366 L 200.092 24.733 198.994 26.172 L 197.896 27.611 185.507 27.506 L 173.117 27.400 172.261 25.924 L 171.405 24.447 172.577 23.224 L 173.750 22.000 185.596 22.000 L 197.443 22.000 198.767 23.366 M147.139 55.700 C 149.273 60.738,151.200 67.600,151.200 70.163 C 151.200 71.193,110.146 71.130,109.860 70.100 C 109.753 69.715,109.548 68.367,109.405 67.105 C 109.261 65.843,108.723 63.234,108.208 61.306 C 107.076 57.067,105.633 57.843,119.872 55.032 C 126.433 53.736,134.500 52.092,137.800 51.377 C 141.100 50.663,144.008 50.061,144.262 50.039 C 144.516 50.018,145.810 52.565,147.139 55.700 M339.853 72.300 C 339.449 75.292,337.997 79.791,337.058 80.961 L 336.200 82.030 330.706 81.915 L 325.212 81.800 332.306 76.123 C 340.381 69.662,340.196 69.756,339.853 72.300 M269.400 74.224 C 273.580 75.943,277.043 77.374,277.095 77.403 C 277.148 77.433,276.266 78.417,275.136 79.589 C 273.694 81.085,272.928 81.613,272.570 81.360 C 268.927 78.793,259.807 70.334,261.300 70.906 C 261.575 71.012,265.220 72.505,269.400 74.224 M69.521 71.499 C 71.788 71.570,75.388 71.570,77.521 71.498 C 79.655 71.426,77.800 71.368,73.400 71.368 C 69.000 71.368,67.255 71.427,69.521 71.499 M64.500 85.876 C 64.885 85.976,65.515 85.976,65.900 85.876 C 66.285 85.775,65.970 85.693,65.200 85.693 C 64.430 85.693,64.115 85.775,64.500 85.876 M69.105 86.283 C 69.602 86.379,70.322 86.375,70.705 86.275 C 71.087 86.175,70.680 86.096,69.800 86.101 C 68.920 86.105,68.607 86.187,69.105 86.283 M77.700 87.076 C 78.085 87.176,78.715 87.176,79.100 87.076 C 79.485 86.975,79.170 86.893,78.400 86.893 C 77.630 86.893,77.315 86.975,77.700 87.076 M82.100 87.476 C 82.485 87.576,83.115 87.576,83.500 87.476 C 83.885 87.375,83.570 87.293,82.800 87.293 C 82.030 87.293,81.715 87.375,82.100 87.476 M86.500 87.876 C 86.885 87.976,87.515 87.976,87.900 87.876 C 88.285 87.775,87.970 87.693,87.200 87.693 C 86.430 87.693,86.115 87.775,86.500 87.876 M90.705 88.283 C 91.202 88.379,91.922 88.375,92.305 88.275 C 92.687 88.175,92.280 88.096,91.400 88.101 C 90.520 88.105,90.207 88.187,90.705 88.283 M95.105 88.683 C 95.602 88.779,96.322 88.775,96.705 88.675 C 97.087 88.575,96.680 88.496,95.800 88.501 C 94.920 88.505,94.607 88.587,95.105 88.683 M99.300 89.076 C 99.685 89.176,100.315 89.176,100.700 89.076 C 101.085 88.975,100.770 88.893,100.000 88.893 C 99.230 88.893,98.915 88.975,99.300 89.076 M103.700 89.476 C 104.085 89.576,104.715 89.576,105.100 89.476 C 105.485 89.375,105.170 89.293,104.400 89.293 C 103.630 89.293,103.315 89.375,103.700 89.476 M110.905 90.287 C 111.514 90.379,112.414 90.377,112.905 90.282 C 113.397 90.187,112.900 90.111,111.800 90.114 C 110.700 90.117,110.297 90.195,110.905 90.287 M116.905 90.687 C 117.514 90.779,118.414 90.777,118.905 90.682 C 119.397 90.587,118.900 90.511,117.800 90.514 C 116.700 90.517,116.297 90.595,116.905 90.687 M122.905 91.087 C 123.514 91.179,124.414 91.177,124.905 91.082 C 125.397 90.987,124.900 90.911,123.800 90.914 C 122.700 90.917,122.297 90.995,122.905 91.087 M128.700 91.482 C 129.195 91.578,130.005 91.578,130.500 91.482 C 130.995 91.387,130.590 91.309,129.600 91.309 C 128.610 91.309,128.205 91.387,128.700 91.482 M134.700 91.882 C 135.195 91.978,136.005 91.978,136.500 91.882 C 136.995 91.787,136.590 91.709,135.600 91.709 C 134.610 91.709,134.205 91.787,134.700 91.882 M140.700 92.282 C 141.195 92.378,142.005 92.378,142.500 92.282 C 142.995 92.187,142.590 92.109,141.600 92.109 C 140.610 92.109,140.205 92.187,140.700 92.282 M309.800 92.989 C 307.652 93.697,308.497 93.724,311.000 93.028 C 312.100 92.722,312.640 92.469,312.200 92.467 C 311.760 92.464,310.680 92.699,309.800 92.989 M159.911 93.493 C 160.851 93.578,162.291 93.577,163.111 93.491 C 163.930 93.405,163.160 93.336,161.400 93.337 C 159.640 93.339,158.970 93.409,159.911 93.493 M175.500 93.893 C 176.435 93.977,177.965 93.977,178.900 93.893 C 179.835 93.809,179.070 93.740,177.200 93.740 C 175.330 93.740,174.565 93.809,175.500 93.893 M301.675 95.473 C 298.746 96.469,296.419 97.352,296.503 97.436 C 296.587 97.520,299.253 96.705,302.428 95.625 C 305.602 94.545,307.930 93.662,307.600 93.662 C 307.270 93.663,304.604 94.478,301.675 95.473 M333.598 94.638 C 336.745 94.986,337.919 96.018,338.970 99.360 C 340.132 103.055,339.801 103.014,334.418 98.806 C 329.347 94.840,328.270 93.686,330.048 94.119 C 330.572 94.247,332.169 94.480,333.598 94.638 M197.507 94.690 C 198.226 94.779,199.306 94.777,199.907 94.686 C 200.508 94.595,199.920 94.522,198.600 94.524 C 197.280 94.526,196.788 94.601,197.507 94.690 M208.700 95.089 C 209.415 95.178,210.585 95.178,211.300 95.089 C 212.015 95.001,211.430 94.928,210.000 94.928 C 208.570 94.928,207.985 95.001,208.700 95.089 M220.300 95.489 C 221.015 95.578,222.185 95.578,222.900 95.489 C 223.615 95.401,223.030 95.328,221.600 95.328 C 220.170 95.328,219.585 95.401,220.300 95.489 M232.512 95.895 C 233.564 95.977,235.184 95.976,236.112 95.892 C 237.040 95.808,236.180 95.741,234.200 95.742 C 232.220 95.743,231.460 95.812,232.512 95.895 M243.507 96.290 C 244.226 96.379,245.306 96.377,245.907 96.286 C 246.508 96.195,245.920 96.122,244.600 96.124 C 243.280 96.126,242.788 96.201,243.507 96.290 M267.113 97.095 C 268.276 97.176,270.076 97.176,271.113 97.093 C 272.151 97.011,271.200 96.945,269.000 96.946 C 266.800 96.947,265.951 97.014,267.113 97.095 M273.900 97.082 C 274.395 97.178,275.205 97.178,275.700 97.082 C 276.195 96.987,275.790 96.909,274.800 96.909 C 273.810 96.909,273.405 96.987,273.900 97.082 M344.798 107.581 C 349.834 111.583,351.520 113.305,353.342 116.305 C 355.199 119.362,355.576 118.607,349.600 123.794 C 339.316 132.719,334.877 138.039,329.654 147.700 C 328.011 150.738,327.359 151.600,326.700 151.600 C 326.235 151.600,321.792 151.062,316.827 150.404 C 311.862 149.747,304.920 148.827,301.400 148.362 C 297.880 147.896,294.937 147.456,294.859 147.383 C 294.782 147.311,298.404 144.824,302.908 141.856 C 322.305 129.076,324.897 124.980,330.587 98.104 L 330.862 96.809 335.931 100.686 C 338.719 102.818,342.709 105.921,344.798 107.581 M286.700 97.497 C 288.295 97.573,290.905 97.573,292.500 97.497 C 294.095 97.421,292.790 97.359,289.600 97.359 C 286.410 97.359,285.105 97.421,286.700 97.497 M120.400 112.472 C 136.418 116.065,145.807 118.109,158.800 120.832 C 165.290 122.192,182.375 125.902,196.766 129.077 C 214.684 133.030,230.256 136.171,246.166 139.042 C 258.945 141.348,274.800 144.231,281.400 145.450 C 288.000 146.668,294.167 147.802,295.104 147.970 C 296.041 148.137,296.895 148.361,297.001 148.467 C 297.457 148.924,292.779 153.215,290.392 154.530 L 287.784 155.966 275.592 152.821 C 268.886 151.091,246.660 145.433,226.200 140.247 C 205.740 135.061,180.090 128.559,169.200 125.799 C 158.310 123.038,149.040 120.605,148.600 120.392 C 148.160 120.178,145.280 119.445,142.200 118.762 C 139.120 118.079,134.530 116.983,132.000 116.326 C 129.470 115.669,126.680 114.980,125.800 114.795 C 121.807 113.958,109.407 110.719,108.267 110.216 L 107.000 109.656 108.400 109.876 C 109.170 109.996,114.570 111.165,120.400 112.472 M341.949 136.200 C 341.568 140.251,340.714 144.275,340.123 144.803 C 339.747 145.139,332.542 146.807,331.483 146.803 C 330.269 146.798,334.853 139.496,339.237 134.452 C 342.253 130.983,342.429 131.096,341.949 136.200 M162.800 187.800 C 162.800 188.350,162.620 188.800,162.400 188.800 C 162.180 188.800,162.000 188.350,162.000 187.800 C 162.000 187.250,162.180 186.800,162.400 186.800 C 162.620 186.800,162.800 187.250,162.800 187.800 " stroke="none" fill="#ffffff" fill-rule="evenodd"></path><path id="path5" d="M164.000 71.857 C 128.470 72.376,98.116 72.936,96.547 73.101 L 93.694 73.400 88.240 79.200 L 82.787 85.000 84.293 85.287 C 85.122 85.445,113.880 87.114,148.200 88.996 C 182.520 90.877,220.230 92.953,232.000 93.609 C 243.770 94.265,254.088 94.801,254.929 94.801 C 256.822 94.800,257.100 95.094,249.373 88.925 C 234.423 76.989,233.372 74.440,242.307 71.776 L 245.400 70.854 237.000 70.884 C 232.380 70.900,199.530 71.338,164.000 71.857 M64.485 73.900 C 62.847 78.479,62.211 83.655,63.112 85.072 C 63.295 85.359,65.742 85.737,69.382 86.039 L 75.352 86.535 82.028 79.571 L 88.703 72.607 87.506 72.104 C 86.646 71.742,83.347 71.600,75.808 71.600 L 65.307 71.600 64.485 73.900 " stroke="none" fill="#83d5e2" fill-rule="evenodd"></path></g></svg>